<!DOCTYPE svg PUBLIC "-//W3C//DTD SVG 1.1//EN" "http://www.w3.org/Graphics/SVG/1.1/DTD/svg11.dtd">
<!-- Uploaded to: SVG Repo, www.svgrepo.com, Transformed by: SVG Repo Mixer Tools -->
<svg version="1.1" id="_x32_" xmlns="http://www.w3.org/2000/svg" xmlns:xlink="http://www.w3.org/1999/xlink" width="800px" height="800px" viewBox="0 0 512 512" xml:space="preserve" fill="#ffffff" stroke="#ffffff">
<g id="SVGRepo_bgCarrier" stroke-width="0"/>
<g id="SVGRepo_tracerCarrier" stroke-linecap="round" stroke-linejoin="round"/>
<g id="SVGRepo_iconCarrier"> <style type="text/css">  .st0{fill:#ffffff;}  </style> <g> <path class="st0" d="M473.818,0.003c0,0-18.578,28.297-139.938,70.172c-123.719,42.688-199.875,216.406-199.875,216.406 c-18.344,35.578-90.813,183.453-90.813,183.453c-19.953,38.172,16.625,60.734,38.063,21.313 c41.156-75.703,67.688-144.875,130.25-146.844c91.219-2.875,153.609-84.109,133.984-80.359 c-25.844,11.484-82.781,0.875-49.234-4.391c80.531-6.594,130.125-68.297,113.969-72.5c-28.563,11.219-55.172,0.578-60.391-2.656 C491.959,166.987,473.818,0.003,473.818,0.003z"/> </g> </g>
</svg>